<svg xmlns="http://www.w3.org/2000/svg" xmlns:xlink="http://www.w3.org/1999/xlink" version="1.1" x="0px" y="0px" viewBox="0 0 128 160" enable-background="new 0 0 128 128" xml:space="preserve"><g><rect x="33.7" y="116.5" fill="#ffffff" width="90.2" height="10.5"/><path fill="#ffffff" d="M123.6,33.7L99.2,6.4C99,6.2,98.9,6.1,98.7,6c-0.8-2.9-3.4-5-6.5-5c-3.1,0-5.7,2.1-6.5,5L18.6,33.7h-17v8.5   h13.1V61l-9,9c-0.4,0.4-0.6,0.9-0.6,1.4H1.6v14.3h8.1V73.6c0-1.1,0.9-2,2-2s2,0.9,2,2v12.2h5.9V73.6c0-1.1,0.9-2,2-2s2,0.9,2,2   v12.2h8.1V71.4h-3.6c0-0.5-0.2-1-0.6-1.4l-9-9V42.2h107.6v-8.5H123.6z M23.8,71.5L9.3,71.5l7.2-6.6c0.1,0,0.2,0,0.3,0s0.2,0,0.3,0   L23.8,71.5z M90.2,33.7h-61l56.7-23.5c0.7,1.9,2.3,3.3,4.2,3.9V33.7z M94.2,33.7V14.2c1.6-0.5,2.9-1.6,3.8-3l20.1,22.6H94.2z"/><path fill="#ffffff" d="M105.5,113.5c1.1,0,2-0.9,2-2V47.3c0-1.1-0.9-2-2-2h-7.7h-1h-18v2v64.1v2h18h1H105.5z M82.7,48.3l11.3,15   L82.7,74V48.3z M82.7,84.5l11.3,15l-11.3,10.8V84.5z M94.7,111.4h-7.4l7.4-7V111.4z M94.7,93.6L83.6,78.8l11.1-10.6V93.6z    M94.7,57.4l-7.6-10.1h7.6V57.4z"/></g></svg>