<svg xmlns:dc="http://purl.org/dc/elements/1.1/" xmlns:cc="http://creativecommons.org/ns#" xmlns:rdf="http://www.w3.org/1999/02/22-rdf-syntax-ns#" xmlns:svg="http://www.w3.org/2000/svg" xmlns="http://www.w3.org/2000/svg" xmlns:sodipodi="http://sodipodi.sourceforge.net/DTD/sodipodi-0.dtd" xmlns:inkscape="http://www.inkscape.org/namespaces/inkscape" version="1.1" x="0px" y="0px" viewBox="0 0 100 125"><g transform="translate(0,-952.36218)"><path style="text-indent:0;text-transform:none;direction:ltr;block-progression:tb;baseline-shift:baseline;color:#ffffff;enable-background:accumulate;" d="m 49.815659,958.37413 a 1.9963377,1.9956407 0 0 0 -1.77781,2.02662 l 0,3.14906 c -7.854098,0.99083 -13.972971,7.69391 -13.972971,15.80764 0,3.36965 1.075765,6.49301 2.869449,9.07302 l -7.39195,25.84723 -9.450469,0 a 1.9963377,1.9956407 0 0 0 -0.187138,0 1.9983388,1.997641 0 1 0 0.187138,3.9909 l 8.327641,0 -3.274915,11.4114 a 1.9963377,1.9956407 0 0 0 1.933759,2.5567 l 1.590674,0 -3.493243,11.3802 a 1.9963377,1.9956407 0 1 0 3.80514,1.1536 l 3.867517,-12.5338 2.214467,0 a 1.9963377,1.9956407 0 0 0 1.84019,-1.2472 l 5.302243,-12.7209 5.832468,0 0,1.9954 a 1.9963377,1.9956407 0 1 0 3.992277,0 l 0,-1.9954 5.832467,0 5.302244,12.7209 a 1.9963377,1.9956407 0 0 0 1.840189,1.2472 l 2.214466,0 3.867519,12.5338 a 1.9963377,1.9956407 0 1 0 3.80514,-1.1536 l -3.493243,-11.3802 1.590672,0 a 1.9963377,1.9956407 0 0 0 1.93376,-2.5567 l -3.274915,-11.4114 8.32764,0 a 1.9963377,1.9956407 0 1 0 0,-3.9909 l -9.450468,0 -7.391951,-25.84723 c 1.793686,-2.58001 2.869449,-5.70337 2.869449,-9.07302 0,-8.11373 -6.118873,-14.81681 -13.972969,-15.80764 l 0,-3.14906 a 1.9963377,1.9956407 0 0 0 -2.214467,-2.02662 z m 0.218328,9.01067 c 6.638265,0 11.976832,5.3367 11.976832,11.97265 0,6.63595 -5.338567,11.97265 -11.976832,11.97265 -6.638266,0 -11.976831,-5.3367 -11.976831,-11.97265 0,-6.63595 5.338565,-11.97265 11.976831,-11.97265 z m 0,3.99088 c -4.386104,0 -7.984555,3.5972 -7.984555,7.98177 0,4.38457 3.598451,7.98176 7.984555,7.98176 4.386104,0 7.984554,-3.59719 7.984554,-7.98176 0,-4.38457 -3.59845,-7.98177 -7.984554,-7.98177 z m 0,3.99088 c 2.228518,0 3.992277,1.76315 3.992277,3.99089 0,2.22774 -1.763759,3.99088 -3.992277,3.99088 -2.228518,0 -3.992277,-1.76314 -3.992277,-3.99088 0,-2.22774 1.763759,-3.99089 3.992277,-3.99089 z m -9.887124,16.49357 c 2.110982,1.67412 4.647458,2.80861 7.423141,3.2426 l -13.848212,33.14307 -3.992277,0 10.417348,-36.38567 z m 19.774247,0 10.417349,36.38567 -3.992277,0 -13.817022,-33.14307 c 2.7639,-0.43761 5.288642,-1.57457 7.39195,-3.2426 z m -9.887123,7.6388 6.175554,14.77877 -4.179415,0 0,-1.9954 a 1.9963377,1.9956407 0 0 0 -2.214467,-2.0267 1.9963377,1.9956407 0 0 0 -1.77781,2.0267 l 0,1.9954 -4.179416,0 6.175554,-14.77877 z" fill="#ffffff" fill-opacity="1" stroke="none" marker="none" visibility="visible" display="inline" overflow="visible"/></g></svg>