<svg xmlns="http://www.w3.org/2000/svg" xmlns:xlink="http://www.w3.org/1999/xlink" version="1.1" x="0px" y="0px" viewBox="0 0 66 82.5" enable-background="new 0 0 66 66" xml:space="preserve"><g><path fill="#000000" d="M65,15.3H53.9l9.7-5.9c2.4-1.4,3.2-4.6,1.7-7c-1.5-2.4-4.6-3.1-7-1.7L34.4,15.3H10.6V7.7c0-0.6-0.5-1-1-1   C4.3,6.7,0,11,0,16.3v40.2C0,61.7,4.3,66,9.6,66H65c0.6,0,1-0.4,1-1V16.3C66,15.7,65.6,15.3,65,15.3z M32.5,19.1l2.9,4.7l-9.8,2.7   L32.5,19.1z M37.3,23l-3.2-5.2L54.2,5.6l3.2,5.2L37.3,23z M59.3,2.4c1.4-0.9,3.3-0.4,4.2,1c0.9,1.4,0.4,3.3-1,4.2l-3.5,2.1   l-3.2-5.2L59.3,2.4z M31.5,17.3l-9.8,10.5c-0.3,0.3-0.4,0.8-0.1,1.2c0.2,0.4,0.7,0.6,1.1,0.4l14.5-4c0,0,0,0,0,0   c0.1,0,0.2-0.1,0.2-0.1l11.3-6.9v18.6H10.6V17.3H31.5z M2,16.3c0-3.8,2.9-7,6.6-7.5v38.2c-2.7,0.3-5,1.7-6.6,3.7V16.3z M2,56.4   c0-4.2,3.4-7.6,7.6-7.6c0.6,0,1-0.4,1-1v-8.9h39.2c0.6,0,1-0.4,1-1V17.3H64v12.4h-8.7c-0.6,0-1,0.4-1,1c0,0.6,0.4,1,1,1H64v14.2   H42.4c-0.6,0-1,0.4-1,1V64H21.8V47.9h13.8c0.6,0,1-0.4,1-1c0-0.6-0.4-1-1-1H20.8c-0.6,0-1,0.4-1,1V64H9.6C5.4,64,2,60.6,2,56.4z    M43.4,64V47.9H64V64H43.4z"/></g><text x="0" y="81" fill="#000000" font-size="5px" font-weight="bold" font-family="'Helvetica Neue', Helvetica, Arial-Unicode, Arial, Sans-serif">Created by Vectors Market</text><text x="0" y="86" fill="#000000" font-size="5px" font-weight="bold" font-family="'Helvetica Neue', Helvetica, Arial-Unicode, Arial, Sans-serif">from the Noun Project</text></svg>