<?xml version="1.0" encoding="UTF-8" standalone="no"?>
<svg
   xmlns:dc="http://purl.org/dc/elements/1.1/"
   xmlns:cc="http://creativecommons.org/ns#"
   xmlns:rdf="http://www.w3.org/1999/02/22-rdf-syntax-ns#"
   xmlns:svg="http://www.w3.org/2000/svg"
   xmlns="http://www.w3.org/2000/svg"
   xmlns:sodipodi="http://sodipodi.sourceforge.net/DTD/sodipodi-0.dtd"
   xmlns:inkscape="http://www.inkscape.org/namespaces/inkscape"
   version="1.1"
   x="0px"
   y="0px"
   viewBox="0 0 66.059975 43.929462"
   enable-background="new 0 0 66 66"
   xml:space="preserve"
   id="svg84"
   sodipodi:docname="estudio_cropped-opt.svg"
   inkscape:version="0.92.2 2405546, 2018-03-11"
   width="66.059975"
   height="43.929462"><metadata
     id="metadata90"><rdf:RDF><cc:Work
         rdf:about=""><dc:format>image/svg+xml</dc:format><dc:type
           rdf:resource="http://purl.org/dc/dcmitype/StillImage" /><dc:title></dc:title></cc:Work></rdf:RDF></metadata><defs
     id="defs88"><clipPath
       clipPathUnits="userSpaceOnUse"
       id="clipPath104"><rect
         id="rect106"
         width="77.010765"
         height="46.335617"
         x="-1.9373777"
         y="-0.48434442" /></clipPath><clipPath
       clipPathUnits="userSpaceOnUse"
       id="clipPath69"><rect
         style="fill:#ff0000"
         id="rect71"
         width="84.760277"
         height="48.757339"
         x="-7.1037183"
         y="-4.8434443" /></clipPath></defs><sodipodi:namedview
     pagecolor="#ffffff"
     bordercolor="#666666"
     borderopacity="1"
     objecttolerance="10"
     gridtolerance="10"
     guidetolerance="10"
     inkscape:pageopacity="0"
     inkscape:pageshadow="2"
     inkscape:window-width="1338"
     inkscape:window-height="716"
     id="namedview86"
     showgrid="false"
     inkscape:zoom="6.1939394"
     inkscape:cx="-12.779056"
     inkscape:cy="12.570491"
     inkscape:window-x="12"
     inkscape:window-y="36"
     inkscape:window-maximized="1"
     inkscape:current-layer="g78"
     fit-margin-right="0"
     fit-margin-top="0"
     fit-margin-left="0"
     fit-margin-bottom="0"
     showguides="false" /><g
     id="g78"
     clip-path="url(#clipPath69)"
     transform="translate(0,0.01556869)"><path
       d="M 65,15.3 H 53.9 L 63.6,9.4 C 66,8 66.8,4.8 65.3,2.4 63.8,0 60.7,-0.7 58.3,0.7 L 34.4,15.3 H 10.6 V 7.7 c 0,-0.6 -0.5,-1 -1,-1 C 4.3,6.7 0,11 0,16.3 V 56.5 C 0,61.7 4.3,66 9.6,66 H 65 c 0.6,0 1,-0.4 1,-1 V 16.3 c 0,-0.6 -0.4,-1 -1,-1 z m -32.5,3.8 2.9,4.7 -9.8,2.7 z m 4.8,3.9 -3.2,-5.2 20.1,-12.2 3.2,5.2 z m 22,-20.6 c 1.4,-0.9 3.3,-0.4 4.2,1 0.9,1.4 0.4,3.3 -1,4.2 L 59,9.7 55.8,4.5 Z M 31.5,17.3 21.7,27.8 c -0.3,0.3 -0.4,0.8 -0.1,1.2 0.2,0.4 0.7,0.6 1.1,0.4 l 14.5,-4 c 0,0 0,0 0,0 0.1,0 0.2,-0.1 0.2,-0.1 L 48.7,18.4 V 37 H 10.6 V 17.3 Z M 2,16.3 C 2,12.5 4.9,9.3 8.6,8.8 V 47 c -2.7,0.3 -5,1.7 -6.6,3.7 z m 0,40.1 c 0,-4.2 3.4,-7.6 7.6,-7.6 0.6,0 1,-0.4 1,-1 v -8.9 h 39.2 c 0.6,0 1,-0.4 1,-1 V 17.3 H 64 v 12.4 h -8.7 c -0.6,0 -1,0.4 -1,1 0,0.6 0.4,1 1,1 H 64 V 45.9 H 42.4 c -0.6,0 -1,0.4 -1,1 V 64 H 21.8 V 47.9 h 13.8 c 0.6,0 1,-0.4 1,-1 0,-0.6 -0.4,-1 -1,-1 H 20.8 c -0.6,0 -1,0.4 -1,1 V 64 H 9.6 C 5.4,64 2,60.6 2,56.4 Z M 43.4,64 V 47.9 H 64 V 64 Z"
       id="path76"
       inkscape:connector-curvature="0"
       style="fill:#ffffff;fill-opacity:0.19607843" /></g></svg>