<?xml version="1.0" encoding="UTF-8"?>
<svg width="66.06" height="66.016" enable-background="new 0 0 66 66" version="1.1" viewBox="0 0 66.06 66.016" xml:space="preserve" xmlns="http://www.w3.org/2000/svg" xmlns:cc="http://creativecommons.org/ns#" xmlns:dc="http://purl.org/dc/elements/1.1/" xmlns:rdf="http://www.w3.org/1999/02/22-rdf-syntax-ns#"><metadata><rdf:RDF><cc:Work rdf:about=""><dc:format>image/svg+xml</dc:format><dc:type rdf:resource="http://purl.org/dc/dcmitype/StillImage"/><dc:title/></cc:Work></rdf:RDF></metadata><g transform="translate(0 .015569)"><path d="m65 15.3h-11.1l9.7-5.9c2.4-1.4 3.2-4.6 1.7-7s-4.6-3.1-7-1.7l-23.9 14.6h-23.8v-7.6c0-0.6-0.5-1-1-1-5.3 0-9.6 4.3-9.6 9.6v40.2c0 5.2 4.3 9.5 9.6 9.5h55.4c0.6 0 1-0.4 1-1v-48.7c0-0.6-0.4-1-1-1zm-32.5 3.8 2.9 4.7-9.8 2.7zm4.8 3.9-3.2-5.2 20.1-12.2 3.2 5.2zm22-20.6c1.4-0.9 3.3-0.4 4.2 1s0.4 3.3-1 4.2l-3.5 2.1-3.2-5.2zm-27.8 14.9-9.8 10.5c-0.3 0.3-0.4 0.8-0.1 1.2 0.2 0.4 0.7 0.6 1.1 0.4l14.5-4c0.1 0 0.2-0.1 0.2-0.1l11.3-6.9v18.6h-38.1v-19.7zm-29.5-1c0-3.8 2.9-7 6.6-7.5v38.2c-2.7 0.3-5 1.7-6.6 3.7zm0 40.1c0-4.2 3.4-7.6 7.6-7.6 0.6 0 1-0.4 1-1v-8.9h39.2c0.6 0 1-0.4 1-1v-20.6h13.2v12.4h-8.7c-0.6 0-1 0.4-1 1s0.4 1 1 1h8.7v14.2h-21.6c-0.6 0-1 0.4-1 1v17.1h-19.6v-16.1h13.8c0.6 0 1-0.4 1-1s-0.4-1-1-1h-14.8c-0.6 0-1 0.4-1 1v17.1h-10.2c-4.2 0-7.6-3.4-7.6-7.6zm41.4 7.6v-16.1h20.6v16.1z"/></g></svg>
