<svg xmlns:dc="http://purl.org/dc/elements/1.1/" xmlns:cc="http://creativecommons.org/ns#" xmlns:rdf="http://www.w3.org/1999/02/22-rdf-syntax-ns#" xmlns:svg="http://www.w3.org/2000/svg" xmlns="http://www.w3.org/2000/svg" xmlns:sodipodi="http://sodipodi.sourceforge.net/DTD/sodipodi-0.dtd" xmlns:inkscape="http://www.inkscape.org/namespaces/inkscape" version="1.1" x="0px" y="0px" viewBox="0 0 100 125"><g transform="translate(0,-952.36218)"><path style="text-indent:0;text-transform:none;direction:ltr;block-progression:tb;baseline-shift:baseline;color:#000000;enable-background:accumulate;" d="m 24,967.36215 c -4.9341,0 -9,4.0659 -9,9 l 0,52.00005 c 0,4.9341 4.0659,9 9,9 l 52,0 c 4.9341,0 9,-4.0659 9,-9 l 0,-52.00005 c 0,-4.9341 -4.0659,-9 -9,-9 l -52,0 z m 0,6 52,0 c 1.7139,0 3,1.2861 3,3 l 0,22.99996 -12.2812,0 C 65.2861,991.43501 58.325,985.36215 50,985.36215 c -8.325,0 -15.2861,6.07286 -16.7188,13.99996 l -12.2812,0 0,-22.99996 c 0,-1.7139 1.2861,-3 3,-3 z m 46,6 c -2.2092,0 -4,1.7908 -4,4 0,2.2091 1.7908,4 4,4 2.2091,0 4,-1.7909 4,-4 0,-2.2092 -1.7909,-4 -4,-4 z m -20,11.99996 c 6.1107,0 11,4.8894 11,10.99999 0,6.1106 -4.8893,11 -11,11 -6.1107,0 -11,-4.8894 -11,-11 0,-6.11059 4.8893,-10.99999 11,-10.99999 z m -29,13.99999 12.2812,0 c 1.4204,7.9419 8.3832,14.0001 16.7188,14.0001 8.3356,0 15.2984,-6.0582 16.7188,-14.0001 l 12.2812,0 0,23.0001 c 0,1.7139 -1.2861,3 -3,3 l -52,0 c -1.7139,0 -3,-1.2861 -3,-3 l 0,-23.0001 z" fill="#000000" fill-opacity="1" stroke="none" marker="none" visibility="visible" display="inline" overflow="visible"/></g><text x="0" y="115" fill="#000000" font-size="5px" font-weight="bold" font-family="'Helvetica Neue', Helvetica, Arial-Unicode, Arial, Sans-serif">Created by Three Six Five</text><text x="0" y="120" fill="#000000" font-size="5px" font-weight="bold" font-family="'Helvetica Neue', Helvetica, Arial-Unicode, Arial, Sans-serif">from the Noun Project</text></svg>