<svg xmlns="http://www.w3.org/2000/svg" xmlns:xlink="http://www.w3.org/1999/xlink" viewBox="0 0 24 30" version="1.1" x="0px" y="0px"><title>map_007-pin-location-position-place-check</title><desc>Created with Sketch.</desc><g stroke="none" stroke-width="1" fill="none" fill-rule="evenodd"><g transform="translate(-333.000000, -45.000000)" fill="#000000"><g transform="translate(336.000000, 46.000000)"><path d="M8.5,14 C11.5375661,14 14,11.5375661 14,8.5 C14,5.46243388 11.5375661,3 8.5,3 C5.46243388,3 3,5.46243388 3,8.5 C3,11.5375661 5.46243388,14 8.5,14 Z M8.5,13 C10.9852814,13 13,10.9852814 13,8.5 C13,6.01471863 10.9852814,4 8.5,4 C6.01471863,4 4,6.01471863 4,8.5 C4,10.9852814 6.01471863,13 8.5,13 Z"/><path d="M9.14503081,20.6466609 C9.42453673,20.4356279 9.73533796,20.1900059 10.06966,19.9120407 C11.0239422,19.1186225 11.97803,18.2233058 12.869796,17.243382 C15.4456001,14.41294 17,11.4578045 17,8.5 C17,3.80557963 13.1944204,0 8.5,0 C3.80557963,0 2.35922393e-16,3.80557963 0,8.5 C0,11.4578045 1.5543999,14.41294 4.13020397,17.243382 C5.02196996,18.2233058 5.9760578,19.1186225 6.93034001,19.9120407 C7.26466204,20.1900059 7.57546327,20.4356279 7.85496919,20.6466609 C8.02416112,20.7744044 8.14639844,20.8629602 8.21389794,20.9100556 C8.38578158,21.0299815 8.61421842,21.0299815 8.78610206,20.9100556 C8.85360156,20.8629602 8.97583888,20.7744044 9.14503081,20.6466609 Z M8.5,19.8864746 C8.5,19.8864746 7.72867087,19.2753063 7.56965999,19.1430999 C6.6489422,18.3775881 5.72803004,17.5134035 4.86979603,16.5703265 C2.4456001,13.9064804 1,11.1581888 1,8.5 C1,4.35786438 4.35786438,1 8.5,1 C12.6421356,1 16,4.35786438 16,8.5 C16,11.1581888 14.5543999,13.9064804 12.130204,16.5703265 C11.27197,17.5134035 10.3510578,18.3775881 9.43034001,19.1430999 C9.26742292,19.278554 8.5,19.8864746 8.5,19.8864746 Z"/><polygon transform="translate(8.474874, 7.974874) rotate(-45.000000) translate(-8.474874, -7.974874) " points="6.47487373 6.47487373 7.47487373 6.47487373 7.47487373 8.47487373 10.4748737 8.47487373 10.4748737 9.47487373 6.47487373 9.47487373"/></g></g></g><text x="0" y="39" fill="#000000" font-size="5px" font-weight="bold" font-family="'Helvetica Neue', Helvetica, Arial-Unicode, Arial, Sans-serif">Created by Pham Thi Dieu Linh</text><text x="0" y="44" fill="#000000" font-size="5px" font-weight="bold" font-family="'Helvetica Neue', Helvetica, Arial-Unicode, Arial, Sans-serif">from the Noun Project</text></svg>