<svg xmlns="http://www.w3.org/2000/svg" xmlns:xlink="http://www.w3.org/1999/xlink" version="1.1" x="0px" y="0px" viewBox="0 0 100 125" enable-background="new 0 0 100 100" xml:space="preserve"><path fill="#000000" d="M53.104,5.042c-0.133,0-0.269,0.003-0.401,0.004c-0.001,0-0.001,0-0.002,0  C52.834,5.045,52.969,5.042,53.104,5.042z"/><path fill="#000000" d="M53.508,5.046c-0.001,0-0.001,0-0.002,0c-0.134-0.001-0.27-0.004-0.402-0.004  C53.238,5.042,53.373,5.045,53.508,5.046z"/><path fill="#000000" d="M52.699,5.046c-0.002,0.002-0.004,0.002-0.006,0.002c0.137-0.002,0.272-0.006,0.41-0.006  C52.969,5.042,52.834,5.045,52.699,5.046z"/><path fill="#000000" d="M53.514,5.048c-0.002,0-0.004,0-0.006-0.002c-0.135-0.001-0.27-0.004-0.404-0.004  C53.24,5.042,53.377,5.046,53.514,5.048z"/><path fill="#000000" d="M52.693,5.048c-0.004,0.002-0.008,0.004-0.012,0.005c0.142-0.007,0.28-0.011,0.422-0.011  C52.967,5.042,52.83,5.046,52.693,5.048z"/><path fill="#000000" d="M53.523,5.053c-0.004-0.001-0.008-0.003-0.01-0.005c-0.138-0.002-0.273-0.006-0.41-0.006  C53.244,5.042,53.384,5.046,53.523,5.053z"/><g><path fill="#000000" d="M68.107,62.62c-0.905-0.808-5.344-4.733-6.209-5.334c-0.861-0.613-1.521-0.986-2.492-0.14   c-0.982,0.845-3.617,2.647-4.418,3.158c-0.803,0.528-1.436,0.445-2.336-0.357c-0.898-0.805-3.97-2.82-6.989-7.448   c-2.344-3.602-3.515-7.564-3.849-8.771c-0.313-1.202,0.386-1.612,1.047-1.988c0.604-0.335,1.37-0.91,2.062-1.379   c0.695-0.458,0.986-0.855,1.524-1.447c0.541-0.603,0.534-1.242,0.412-1.833s-0.808-6.263-1.116-8.578   c-0.298-2.312-1.262-2.201-1.875-2.369c-0.603-0.166-1.275-0.453-1.973-0.644c-0.693-0.19-1.897-0.237-3.137,0.527   c-1.245,0.784-4.629,2.563-6.026,7.652s0.984,11.045,1.314,11.875c0.337,0.844,4.072,13.474,13.545,20.534   c9.479,7.072,9.86,5.689,11.821,6.031c1.961,0.356,6.865-0.801,8.396-2.984c1.549-2.18,2.116-4.253,1.971-4.761   C69.633,63.867,69.004,63.423,68.107,62.62z"/><path fill="#000000" d="M50.838,5.005c-24.395,0-44.182,19.627-44.182,43.841c0,8.272,2.315,16.018,6.342,22.622L5.022,94.991   l24.455-7.769c6.331,3.467,13.615,5.441,21.361,5.441c24.398,0,44.17-19.627,44.17-43.818C95.009,24.633,75.236,5.005,50.838,5.005   z M50.838,85.688c-7.549,0-14.576-2.25-20.44-6.09L16.136,84.13l4.629-13.681c-4.443-6.09-7.065-13.551-7.065-21.603   c0-20.33,16.654-36.863,37.138-36.863c20.473,0,37.137,16.534,37.137,36.863C87.977,69.154,71.312,85.688,50.838,85.688z"/></g><text x="0" y="115" fill="#000000" font-size="5px" font-weight="bold" font-family="'Helvetica Neue', Helvetica, Arial-Unicode, Arial, Sans-serif">Created by lipi</text><text x="0" y="120" fill="#000000" font-size="5px" font-weight="bold" font-family="'Helvetica Neue', Helvetica, Arial-Unicode, Arial, Sans-serif">from the Noun Project</text></svg>