<svg xmlns:dc="http://purl.org/dc/elements/1.1/" xmlns:cc="http://creativecommons.org/ns#" xmlns:rdf="http://www.w3.org/1999/02/22-rdf-syntax-ns#" xmlns:svg="http://www.w3.org/2000/svg" xmlns="http://www.w3.org/2000/svg" xmlns:sodipodi="http://sodipodi.sourceforge.net/DTD/sodipodi-0.dtd" xmlns:inkscape="http://www.inkscape.org/namespaces/inkscape" version="1.1" x="0px" y="0px" viewBox="0 0 2110.8525 2683.174125" enable-background="new 0 0 2000 2000" xml:space="preserve"><path style="" d="M 921.074,0 C 413.277,0.092 0.185,413.4345 0,921.4158 c 0,507.6116 413.277,920.6859 920.889,920.6859 211.582,0 406.255,-72.3997 561.939,-192.7242 l 470.286,470.0905 c 18.016,18.0168 41.669,27.0714 65.321,27.0714 23.653,0 47.306,-9.0546 65.323,-27.0714 36.126,-36.1259 36.126,-94.6205 0,-130.6541 l -466.681,-466.478 C 1756.869,1360.8315 1842.148,1151.0513 1842.148,921.231 1842.148,413.3421 1428.686,0 921.074,0 Z m 0,184.7875 c 405.794,0 736.101,330.2895 736.286,736.2679 0,405.8861 -330.401,736.0832 -736.471,736.0832 -405.886,0 -735.916,-330.0215 -736.102,-735.7228 0,-406.0708 330.401,-736.5359 736.287,-736.6283 z m 0,269.4297 c -51.094,0 -92.394,41.3924 -92.394,92.3939 l 0,271.4068 -271.452,0 c -51.095,0 -92.394,41.3924 -92.394,92.3937 0,51.0015 41.299,92.3939 92.394,92.3939 l 271.452,0 0,271.4069 c 0,51.0013 41.3,92.3938 92.394,92.3938 51.093,0 92.394,-41.3925 92.394,-92.3938 l 0,-271.4069 271.36,0 c 51.094,0 92.394,-41.3924 92.394,-92.3939 0,-51.0013 -41.3,-92.3937 -92.394,-92.3937 l -271.36,0 0,-271.4068 c 0,-51.0015 -41.301,-92.3939 -92.394,-92.3939 z" fill="#000000"/></svg>