<?xml version="1.0" encoding="utf-8"?>
<!-- Generator: Adobe Illustrator 23.0.1, SVG Export Plug-In . SVG Version: 6.00 Build 0)  -->
<svg version="1.1" id="Layer_1" xmlns="http://www.w3.org/2000/svg" xmlns:xlink="http://www.w3.org/1999/xlink" x="0px" y="0px"
	 viewBox="0 0 371.68 130.98" style="enable-background:new 0 0 371.68 130.98;" xml:space="preserve">
<style type="text/css">
	.st0{fill:#EF4423;}
</style>
<g>
	<path d="M94.6,23.23c0,0-74.56-21.71-74.4,42.47s74.4,40.42,74.4,40.42V68.53h-18.4v28.16c0,0-33.19,9.44-36.33-30.67
		c-3.15-40.11,37.59-36.49,54.58-28C94.44,30.31,94.6,23.23,94.6,23.23z"/>
	<path d="M144.14,22.13c0,0,41.21-0.63,41.21,41.37c0,46.72-40.9,44.83-40.9,44.83h-37.59V21.98
		C106.87,21.82,144.14,22.13,144.14,22.13z M125.58,34.41V95.6h15.57c0,0,24.22,2.99,24.22-29.89s-24.07-30.83-24.07-30.83
		S125.82,34.17,125.58,34.41z"/>
	<path class="st0" d="M267.15,59.83c-5.35,0.16-14.63,0.31-14.63,0.31s-0.58,20.34-5.98,23.91c-2.67-3.15-8.65-9.75-16.67-24.38
		c5.66-2.52,21.08-10.22,18.4-23.44s-14.32-16-22.96-16.36c-11.48-0.47-21.45,7.61-22.49,15.73c-0.79,6.13,0.16,12.58,5.19,19.98
		c-3.15,1.89-33.5,15.73-14.63,43.88c15.57,21.55,47.82,4.09,47.82,4.09l3.3,4.4h21.08l-12.11-13.84
		C253.46,94.12,268.56,77.92,267.15,59.83z M226.2,31.36c3.25-0.05,6.97,0.79,7.45,7.24c0.58,7.87-9.44,12.27-9.44,12.27
		s-4.95-6.13-4.72-13.06C219.7,31.62,223.92,31.4,226.2,31.36z M208,90.19c-10.38-14.47,6.29-24.54,6.29-24.54l19.5,29.1
		C233.8,94.75,218.39,104.66,208,90.19z"/>
	<path d="M317.32,22.24l33.19,85.57h-18.88l-8.65-22.02l-34.76-0.16l-9.12,22.34h-13.53l33.19-85.72H317.32z M305.53,41.43
		l-12.74,32.09l25.32-0.31L305.53,41.43z"/>
</g>
</svg>
